PathFileType	4	(X/Y/Z)	32_2_39_p0_0-267_filt_butterworth.trc
DataRate	CameraRate	NumFrames	NumMarkers	Units	OrigDataRate	OrigDataStartFrame	OrigNumFrames
60.0	60.0	6	27	m	60.0	33	267
Frame#	Time	RHip			RKnee			RAnkle			RBigToe			RSmallToe			RHeel			LHip			LKnee			LAnkle			LBigToe			LSmallToe			LHeel			Neck			Head			Nose			RShoulder			RElbow			RWrist			RThumb			RIndex			RPinky			LShoulder			LElbow			LWrist			LThumb			LIndex			LPinky			
		X1	Y1	Z1	X2	Y2	Z2	X3	Y3	Z3	X4	Y4	Z4	X5	Y5	Z5	X6	Y6	Z6	X7	Y7	Z7	X8	Y8	Z8	X9	Y9	Z9	X10	Y10	Z10	X11	Y11	Z11	X12	Y12	Z12	X13	Y13	Z13	X14	Y14	Z14	X15	Y15	Z15	X16	Y16	Z16	X17	Y17	Z17	X18	Y18	Z18	X19	Y19	Z19	X20	Y20	Z20	X21	Y21	Z21	X22	Y22	Z22	X23	Y23	Z23	X24	Y24	Z24	X25	Y25	Z25	X26	Y26	Z26	X27	Y27	Z27	
33	0.55	0.3357760301900829	0.4280417551011285	1.0639996884287517	0.3386839796349805	0.48757721888069333	1.5067984735866695	0.3261045582801244	0.5209150665635123	1.9258015408126925	0.3109738461423062	0.2994097887056919	1.9016304277377538	0.3679790234171553	0.33877627597592824	1.9172222388038949	0.30511091657852657	0.5939936351775618	2.020680717433182	0.13805009765734771	0.4370691164409396	1.076638139396851	0.13693773358276218	0.49662885758869	1.5094876752521105	0.15299648094379348	0.5270316018464927	1.9427014874552833	0.15384511167242043	0.3350980510618259	1.9155645294979746	0.1005226215804009	0.4092645394477654	1.954961436573711	0.16635138702625096	0.5653410018453182	1.991368981325736	0.2485095672346949	0.4508414355334581	0.48553115365993993	0.24253344822345588	0.44748017098970105	0.2538509579718079	0.2306911293352471	0.3634619478668077	0.3565720240905205	0.40212883052831655	0.4346979504433015	0.5695320034796091	0.5054138773766341	0.4092665490661201	0.7670403644349258	0.40022051428337735	0.14419660324476916	0.7632656838068812	0.3214976109530808	0.056587749694832615	0.7463591125125582	0.3233357378974017	0.02792450386496241	0.7563916870780771	0.35283747308148383	0.10095810253173174	0.8014532362246627	0.0750327900537401	0.4406027107028936	0.5657293260225824	-0.033951478989169795	0.40595791002264225	0.7675861040804575	0.07551672075240229	0.20607524735801053	0.7230378231979683	0.1512800104287538	0.133594194285387	0.6766089377644586	0.14692994058702552	0.10272388104160313	0.6787355974187632	0.129260769215558	0.10739579373426592	0.7293626636434657
34	0.5666666666666667	0.33711637857914456	0.4293166857454485	1.0644335262123905	0.33857759200847676	0.4874150776809206	1.5067226790874546	0.3263111998318048	0.5221278864004791	1.9261652896005517	0.31109060926810184	0.29973413984197644	1.9045520047561668	0.3681084035647492	0.34164708486786355	1.9182233221492995	0.3050459497804508	0.5939136921229071	2.0199567962683425	0.1381793144888407	0.43754923207026475	1.0754987119857413	0.1364571366553617	0.4958061141512238	1.5095477032409377	0.15299909195622227	0.5270330131704888	1.9426818563919386	0.15378093262990913	0.3349431563606703	1.9155074440068294	0.10053576731911124	0.40937968089132265	1.9550568170218114	0.1658422425367653	0.5670600843666579	1.9924872075716182	0.2479121372201757	0.45814296867607596	0.4851481574264222	0.241418595253178	0.45082720126695075	0.2528066410164753	0.2292297139067572	0.3672935000558129	0.3561725214744693	0.4018168769198377	0.4362206961660634	0.5678454689714859	0.5064484332337135	0.41482663488479227	0.7578924226921213	0.4064825909582831	0.15877608830718196	0.7353716633053651	0.3290794868461896	0.07009132637170984	0.7048387028730773	0.3278597242958965	0.029920633401063133	0.710771160190724	0.3557828176389041	0.10365744130480317	0.7627135504943613	0.07542087299570312	0.44221710945823145	0.5669554259268048	-0.04097669357861424	0.396217420967132	0.7659144524289301	0.06866630890003331	0.21472539406230592	0.6996093402890202	0.14138204776436475	0.1563622690912735	0.6495384377676768	0.13105058208351666	0.12492975635699152	0.6468592376185798	0.11243982562739319	0.09829020335587557	0.685823899947688
35	0.5833333333333334	0.3389010694944242	0.4298995316205311	1.063916158420907	0.3375665406596009	0.48578334866613937	1.5057144072203048	0.326137221504589	0.5221775256611436	1.9263988064209654	0.31150278712616253	0.29988018055643234	1.9052391031849807	0.3681953744914255	0.34199490643361113	1.9178919992585484	0.30490317453273336	0.5938724073634049	2.019891569061569	0.1385895513588529	0.4375306375042602	1.0732773382187668	0.1361564390298683	0.4953273537115022	1.5104545315180082	0.15298560498603825	0.5270641002305154	1.9426548165134327	0.15374084195592566	0.3348703390121518	1.915477468755881	0.10046812722454447	0.40908677510361213	1.9547804064416088	0.1645142593382077	0.5714605661623369	1.995356517359952	0.24782052981676445	0.46509481848333634	0.4848308277022509	0.2409497792236039	0.4523463148904282	0.25188856364115314	0.22808014998971732	0.37012124930636686	0.3554076995525236	0.4005684894583004	0.43647843763161576	0.5669540481840236	0.5103587327414957	0.4068886898767973	0.7495659924728761	0.41104071300676853	0.173225104089213	0.7095296358786696	0.329198438378722	0.10172532196785097	0.6733420259493347	0.33057483023638556	0.05224738067589937	0.6751665904288313	0.35727041589171155	0.11109646127424813	0.7293745754149712	0.07665550672631151	0.4463902874512611	0.5664023712401783	-0.04472081385203362	0.38897149927631486	0.7648748202223522	0.06408875765887947	0.22134774172377103	0.6779317416694622	0.13567703414446083	0.17426656086469008	0.6244995761751031	0.11870723080253462	0.14432794696290344	0.6166624946855471	0.09854917698339097	0.09237906207888134	0.6472865685507605
36	0.6	0.3404300068471348	0.42909889614694535	1.061029338186856	0.336095602774529	0.4824361949138167	1.503098880173161	0.32593322703438815	0.5219100202964111	1.9264787317565513	0.31243235254186963	0.3000473824001637	1.9035168113652408	0.36818728530813216	0.3417764431306054	1.9178873483616425	0.30479280014506127	0.5939472461914089	2.020090756218621	0.1394992089764438	0.437640054198997	1.0704215538932045	0.1360781908190837	0.4951732052408895	1.5110457183967905	0.15295841919269426	0.5271432756022704	1.9426135494306183	0.1537273289678091	0.3348475393071139	1.9153690233984628	0.10042163979465292	0.4088554374231079	1.9545974982216343	0.16274825389171077	0.5772266101645417	1.9991466285362873	0.24783834059546378	0.4683881303077856	0.484857641954059	0.2409197236374303	0.4525940917377265	0.25121227005013813	0.22758493507384375	0.3712135156184597	0.3546666760740154	0.39854708568148234	0.4363062106825747	0.5664897525753565	0.5159165389663917	0.3888673195128311	0.7440755196097503	0.4133820845807779	0.1868831477719494	0.685095196761626	0.3242204280963413	0.1391140593463257	0.649234056457095	0.33095163290261154	0.08937506957540353	0.6464267035677274	0.35709294678943626	0.12200570454240992	0.6971031239790657	0.07898723567509373	0.45345907700057936	0.564045819838792	-0.046158745098557996	0.3864213838709863	0.7643840809817449	0.06163091983432016	0.22681911230253748	0.6585187159040518	0.13098215505761615	0.18799362682377782	0.6012983136909215	0.11176549891407449	0.1597125461252452	0.5892403491008857	0.09087307511521371	0.09948129927807711	0.6176573310445115
37	0.6166666666666667	0.3411903726222825	0.42828367222156344	1.0575380017289966	0.334544430487687	0.47829816763806166	1.4996259394902813	0.32583227415775706	0.5210870949559407	1.9260367678973807	0.31375120667885525	0.30046170252876303	1.9014855195577995	0.3682250289369328	0.3418474554908214	1.9187489362120609	0.304756158935937	0.5940549029523353	2.020246151533748	0.14066083893367948	0.4382894237141337	1.0683426132498002	0.1361033076648722	0.4951906329571922	1.5108111423873545	0.15293469255900044	0.5272394606405635	1.9425629425085356	0.15373063214267152	0.33483671456022324	1.915139558995576	0.10041299391603066	0.4087478510625838	1.9545681732935183	0.1614067828675479	0.5815949433617729	2.0020266455517937	0.2472864574755083	0.4675573304430335	0.48570716156022004	0.24100811431907349	0.45249525078064645	0.2504374405352598	0.22756242789476042	0.3712309063383501	0.3543240567913995	0.3964933854973908	0.437416721281233	0.5663921135349022	0.521128549810645	0.36754323840086006	0.7422055420867772	0.4143280792769529	0.1968639680038487	0.6625101544653883	0.31948426460498114	0.1684005271917401	0.6280057313639007	0.3298595481180216	0.12754143642489935	0.6196940612449547	0.3544337533143025	0.13338933150899554	0.6646157573901073	0.08189613997864763	0.46197408155452313	0.561492380365026	-0.04658577545828219	0.3859088840991912	0.7646734016594191	0.06076013915745988	0.23040744117210407	0.6424554780098081	0.12423997613918895	0.20418136726447583	0.581146605427461	0.10760913063628451	0.17496342847638918	0.5670954508467845	0.08761581021277097	0.12200026168446115	0.5967129054197662
38	0.6333333333333333	0.3411566764144136	0.4280779544415105	1.0553933251075927	0.3334399400735252	0.47518552863431285	1.4969909394614163	0.3258369218952128	0.5189677996272876	1.924669862125028	0.31496291291612455	0.30103940408384466	1.9005815270871078	0.3683691220553602	0.342023741252349	1.9198293209066954	0.3047720737880826	0.5941002236963222	2.020261141263986	0.14153065726421704	0.43908459221959634	1.0679366149906615	0.13610479682763926	0.49528186126941787	1.509709936841609	0.15292787705781674	0.5272949698468604	1.9425201138068515	0.15373154202707737	0.33482627118300623	1.9150180049731447	0.10042520051475937	0.40868943121596696	1.9545968568790937	0.16088559125842997	0.5833480437572278	2.0031385970569957	0.2460715470497309	0.464727441547929	0.4871464005160327	0.24106811557974717	0.4525082620351065	0.24945243563895342	0.22772126878695514	0.37101581696212227	0.35432263266251446	0.39464553599832536	0.4409410725952649	0.5666117818502159	0.5247109592701183	0.3511178663096022	0.742427185853331	0.4143565728348198	0.20167444125025516	0.6436727965498887	0.3178698713367404	0.18502566002056076	0.6066912814858247	0.32820664754568757	0.1546773406869421	0.5933644994216534	0.3491491118403597	0.14322533167575396	0.6352301232803907	0.08446569623482658	0.46983796555031837	0.5604792948737014	-0.046921572166392075	0.384683818361492	0.7654517116840152	0.060094908888899776	0.23459001026763798	0.6303276385898485	0.11595729590799679	0.22894012679145964	0.5668665829759437	0.1036203942030978	0.19491966792630547	0.5508222417535475	0.08521601060792203	0.15527805484022367	0.5814251893703233
